<svg viewBox="0 -44 511.99894 511" xmlns="http://www.w3.org/2000/svg"><path d="m324.191406 320.582031c0-46.289062 37.527344-83.8125 83.816406-83.8125 1.503907 0 2.996094.042969 4.480469.121094 3.308594-27.199219 2.824219-53.777344-1.625-78-5.285156-28.773437-16.660156-55.148437-33.644531-68.746094-42.839844-34.292969-73.675781 3.792969-124.535156 4.683594-50.855469-.890625-81.691406-38.976563-124.53125-4.683594-16.984375 13.597657-28.363282 39.972657-33.644532 68.746094-14.320312 77.976563 12.390626 180.378906 74.722657 249.332031 9.105469 10.070313 25.605469 7.195313 30.914062-5.300781 5.039063-11.855469 10.84375-26.519531 15.316407-40.667969 5.132812-16.226562 20.203124-27.242187 37.222656-27.242187 17.023437 0 32.09375 11.015625 37.222656 27.242187 4.472656 14.152344 10.277344 28.8125 15.316406 40.667969 5.308594 12.496094 21.8125 15.375 30.914063 5.300781 6.597656-7.292968 12.789062-14.96875 18.582031-22.945312-18.644531-15.375-30.527344-38.644532-30.527344-64.695313zm0 0" fill="#d3e6f0"/><path d="m109.367188 64.582031c3.226562-.863281 3.167968-5.460937-.074219-6.246093l-.234375-.054688c-21.984375-5.3125-39.226563-22.355469-44.792969-44.28125l-.273437-1.074219c-.820313-3.234375-5.417969-3.234375-6.238282 0l-.027344.109375c-5.640624 22.210938-22.980468 39.550782-45.1875 45.191406l-.113281.027344c-3.234375.820313-3.234375 5.417969 0 6.238282l.113281.027343c22.207032 5.640625 39.546876 22.980469 45.1875 45.1875l.273438 1.074219c.757812 2.980469 4.992188 2.980469 5.75 0 5.71875-22.515625 23.15625-40.183594 45.597656-46.195312zm0 0" fill="#ffcd40"/><path d="m412.488281 236.890625c-1.484375-.078125-2.976562-.121094-4.480469-.121094-46.289062 0-83.816406 37.523438-83.816406 83.8125 0 26.050781 11.882813 49.324219 30.527344 64.695313 14.480469 11.941406 33.046875 19.117187 53.289062 19.117187 46.289063 0 83.8125-37.523437 83.8125-83.8125 0-44.785156-35.128906-81.363281-79.332031-83.691406zm0 0" fill="#4dc3ce"/><path d="m500.25 121.871094-.164062-.039063c-15.597657-3.773437-27.828126-15.863281-31.78125-31.414062l-.191407-.765625c-.585937-2.292969-3.84375-2.292969-4.425781 0l-.023438.078125c-4 15.757812-16.300781 28.058593-32.058593 32.0625l-.078125.019531c-2.296875.582031-2.296875 3.84375 0 4.425781l.078125.019531c15.757812 4 28.058593 16.304688 32.058593 32.058594l.195313.761719c.535156 2.117187 3.542969 2.117187 4.078125 0 4.058594-15.976563 16.429688-28.507813 32.351562-32.773437l.015626-.003907c2.289062-.613281 2.25-3.875-.054688-4.429687zm0 0" fill="#ffcd40"/><path d="m423.480469 228.042969c2.222656-24.9375 1.292969-48.765625-2.785157-70.953125-6.230468-33.96875-19.453124-60.515625-37.226562-74.753906-31.457031-25.179688-58.535156-16.191407-84.726562-7.5-14.3125 4.75-29.109376 9.660156-46.0625 9.988281-16.945313-.328125-31.742188-5.238281-46.054688-9.988281-26.1875-8.691407-53.265625-17.675782-84.726562 7.503906-17.773438 14.234375-30.992188 40.78125-37.222657 74.75-7.378906 40.164062-4.238281 87.265625 8.839844 132.621094 13.761719 47.710937 37.375 91.011718 68.292969 125.21875 5.464844 6.042968 13.097656 9.382812 21.085937 9.382812 1.585938 0 3.191407-.132812 4.792969-.402344 9.714844-1.628906 17.8125-8.015625 21.667969-17.078125 6.527343-15.390625 11.789062-29.375 15.636719-41.5625 3.832031-12.113281 14.957031-20.253906 27.6875-20.253906 6.222656 0 12.160156 1.9375 17.167968 5.605469 5.007813 3.660156 8.648438 8.726562 10.523438 14.644531 3.890625 12.304687 9.152344 26.292969 15.644531 41.570313 3.851563 9.058593 11.945313 15.441406 21.65625 17.074218 9.65625 1.621094 19.328125-1.730468 25.886719-8.980468 4.53125-5.015626 8.957031-10.289063 13.21875-15.753907 15.148437 9.871094 32.996094 15.21875 51.230468 15.21875 51.726563 0 93.8125-42.082031 93.8125-93.808593 0-46.347657-33.652343-85.144532-78.339843-92.542969zm-15.46875 166.351562c-17.109375 0-33.773438-5.976562-46.925781-16.832031-.003907-.003906-.003907-.003906-.007813-.003906 0-.003906-.003906-.003906-.003906-.003906-3.414063-2.8125-6.601563-5.960938-9.472657-9.363282-3.566406-4.21875-9.875-4.75-14.09375-1.1875-4.21875 3.566406-4.75 9.875-1.1875 14.09375 1.578126 1.867188 3.242188 3.660156 4.960938 5.398438-4.050781 5.214844-8.246094 10.253906-12.554688 15.019531-2.816406 3.113281-6.347656 2.90625-7.734374 2.671875-1.414063-.238281-4.886719-1.21875-6.566407-5.171875-6.246093-14.695313-11.285156-28.074219-14.980469-39.78125-3.175781-10.011719-9.328124-18.574219-17.789062-24.757813-8.453125-6.191406-18.472656-9.460937-28.976562-9.460937-21.492188 0-40.285157 13.753906-46.753907 34.226563-3.660156 11.589843-8.703125 24.972656-14.976562 39.769531-1.683594 3.957031-5.160157 4.9375-6.574219 5.175781-1.386719.230469-4.917969.441406-7.726562-2.667969-57.023438-63.089843-86.753907-162.117187-72.300782-240.820312 5.285156-28.8125 16.242188-51.683594 30.050782-62.746094 11.097656-8.882813 21.035156-12.078125 31.15625-12.078125 10.835937 0 21.878906 3.664062 34.773437 7.941406 15.050781 4.996094 32.105469 10.65625 52.179687 11.007813h.347657c20.078125-.351563 37.136719-6.011719 52.1875-11.007813 24.9375-8.273437 42.957031-14.25 65.925781 4.132813 13.816406 11.066406 24.769531 33.9375 30.054688 62.753906 3.785156 20.589844 4.609374 42.8125 2.472656 66.171875-45.503906 2.167969-83.214844 36.914062-88.644532 82.515625-.65625 5.484375 3.261719 10.460937 8.746094 11.113281.402344.046875.800782.070313 1.195313.070313 4.992187 0 9.3125-3.734375 9.917969-8.816407 4.410156-37.050781 35.921874-64.992187 73.296874-64.992187 1.203126 0 2.492188.035156 3.945313.113281.003906 0 .007813.003906.011719.003906 39.167968 2.0625 69.855468 34.4375 69.855468 73.703126 0 40.699218-33.109374 73.808593-73.808593 73.808593zm0 0"/><path d="m209.238281 192.695312c.640625-.128906 1.273438-.320312 1.871094-.570312.601563-.25 1.179687-.558594 1.730469-.917969.539062-.371093 1.058594-.78125 1.519531-1.242187.460937-.46875.878906-.980469 1.242187-1.53125.359376-.539063.667969-1.117188.917969-1.71875.25-.609375.441407-1.230469.570313-1.871094.128906-.648438.199218-1.308594.199218-1.957031 0-.652344-.070312-1.3125-.199218-1.953125-.128906-.636719-.320313-1.269532-.570313-1.867188-.25-.601562-.558593-1.191406-.917969-1.730468-.363281-.550782-.78125-1.058594-1.242187-1.519532-.460937-.460937-.980469-.882812-1.519531-1.242187-.550782-.359375-1.128906-.667969-1.730469-.917969-.597656-.25-1.230469-.441406-1.871094-.570312-1.289062-.261719-2.617187-.261719-3.910156 0-.636719.128906-1.269531.320312-1.867187.570312-.601563.25-1.179688.558594-1.730469.917969-.539063.359375-1.050781.78125-1.519531 1.242187-.460938.460938-.871094.96875-1.242188 1.519532-.359375.539062-.667969 1.128906-.917969 1.730468-.25.597656-.441406 1.230469-.570312 1.867188-.128907.640625-.199219 1.300781-.199219 1.953125 0 .648437.070312 1.308593.199219 1.957031.128906.640625.320312 1.261719.570312 1.871094.25.601562.558594 1.179687.917969 1.71875.371094.550781.78125 1.0625 1.242188 1.53125.460937.460937.980468.871094 1.519531 1.242187.550781.359375 1.128906.667969 1.730469.917969.597656.25 1.230468.441406 1.867187.570312.652344.128907 1.300781.191407 1.960937.191407.652344 0 1.3125-.0625 1.949219-.191407zm0 0"/><path d="m307.320312 179.066406c-.25-.601562-.558593-1.183594-.921874-1.730468-.367188-.542969-.777344-1.0625-1.238282-1.519532-.46875-.460937-.980468-.882812-1.53125-1.242187-.539062-.359375-1.117187-.667969-1.71875-.917969-.609375-.25-1.230468-.441406-1.871094-.570312-1.289062-.261719-2.617187-.261719-3.910156 0-.640625.128906-1.269531.320312-1.867187.570312-.601563.25-1.191407.558594-1.730469.917969-.550781.359375-1.0625.78125-1.519531 1.242187-.460938.457032-.882813.976563-1.242188 1.519532-.359375.546874-.667969 1.128906-.917969 1.730468-.25.597656-.441406 1.226563-.570312 1.867188-.132812.640625-.203125 1.300781-.203125 1.949218 0 2.640626 1.070313 5.210938 2.933594 7.070313.457031.460937.96875.882813 1.519531 1.25.539062.363281 1.128906.671875 1.730469.921875.597656.25 1.226562.441406 1.867187.570312.640625.128907 1.300782.1875 1.949219.1875.652344 0 1.3125-.058593 1.960937-.1875.640626-.128906 1.261719-.320312 1.871094-.570312.601563-.25 1.179688-.558594 1.71875-.921875.550782-.367187 1.0625-.789063 1.53125-1.25 1.859375-1.859375 2.917969-4.429687 2.917969-7.070313 0-.648437-.058594-1.308593-.1875-1.949218s-.320313-1.269532-.570313-1.867188zm0 0"/><path d="m282.664062 225.910156c-17.929687 12.574219-42.027343 12.574219-59.960937 0-4.523437-3.167968-10.757813-2.074218-13.929687 2.449219-3.167969 4.519531-2.074219 10.757813 2.449218 13.925781 12.398438 8.695313 26.929688 13.042969 41.460938 13.042969s29.0625-4.347656 41.464844-13.042969c4.523437-3.167968 5.617187-9.40625 2.445312-13.925781-3.171875-4.523437-9.40625-5.621094-13.929688-2.449219zm0 0"/><path d="m111.84375 74.269531c.035156-.007812.074219-.015625.109375-.027343 5.847656-1.566407 9.875-6.882813 9.804687-12.933594-.074218-6.050782-4.234374-11.265625-10.113281-12.691406l-.238281-.058594c-18.429688-4.453125-32.78125-18.640625-37.449219-37.019532l-.273437-1.074218c-1.488282-5.867188-6.757813-9.964844-12.8125-9.964844-6.050782 0-11.320313 4.097656-12.808594 9.960938l-.03125.113281c-4.742188 18.671875-19.285156 33.21875-37.929688 37.953125l-.136718.035156c-5.867188 1.488281-9.964844 6.757812-9.964844 12.808594 0 6.054687 4.097656 11.324218 9.992188 12.820312l.082031.019532c18.671875 4.742187 33.21875 19.289062 37.960937 37.957031l.269532 1.074219c1.464843 5.753906 6.632812 9.773437 12.570312 9.773437s11.105469-4.019531 12.566406-9.773437c4.820313-18.984376 19.570313-33.925782 38.402344-38.972657zm-50.839844 16.480469c-6.679687-12.429688-16.855468-22.644531-29.265625-29.375 12.253907-6.644531 22.332031-16.691406 29.015625-28.917969 6.636719 12.449219 16.824219 22.617188 29.277344 29.226563-12.210938 6.765625-22.28125 16.855468-29.027344 29.066406zm0 0"/><path d="m502.601562 112.152344s-.003906 0-.003906-.003906l-.164062-.039063c-12.027344-2.90625-21.390625-12.164063-24.433594-24.152344l-.195312-.765625c-1.382813-5.453125-6.28125-9.261718-11.90625-9.261718s-10.519532 3.808593-11.925782 9.339843c-3.101562 12.214844-12.613281 21.726563-24.90625 24.851563-5.453125 1.382812-9.261718 6.28125-9.261718 11.90625s3.808593 10.519531 9.339843 11.921875c12.214844 3.101562 21.726563 12.617187 24.832031 24.832031l.191407.757812c1.363281 5.371094 6.1875 9.125 11.730469 9.125 5.542968 0 10.367187-3.75 11.734374-9.125 3.160157-12.453124 12.832032-22.25 25.257813-25.578124 5.429687-1.453126 9.175781-6.394532 9.105469-12.019532-.066406-5.621094-3.929688-10.46875-9.394532-11.789062zm-36.582031 27.105468c-3.988281-6.035156-9.148437-11.210937-15.175781-15.226562 5.902344-3.9375 10.976562-8.996094 14.9375-14.894531 3.980469 6.03125 9.144531 11.1875 15.183594 15.152343-5.890625 3.988282-10.96875 9.074219-14.945313 14.96875zm0 0"/><path d="m453.035156 281.101562c-29.832031 4.628907-48.089844 35.746094-57.105468 56.554688-12.464844-10.914062-29.40625-15.46875-32.0625-16.128906-5.347657-1.339844-10.761719 1.910156-12.109376 7.257812-1.351562 5.347656 1.894532 10.78125 7.238282 12.136719 6.816406 1.734375 26.957031 9.277344 30.035156 20.820313 1.160156 4.355468 5.09375 7.390624 9.601562 7.417968h.0625c4.480469 0 8.417969-2.988281 9.628907-7.308594 4.367187-15.578124 21.460937-56.902343 47.777343-60.988281 5.457032-.847656 9.195313-5.957031 8.347657-11.414062-.84375-5.457031-5.960938-9.195313-11.414063-8.347657zm0 0"/><path d="m337.179688 341.59375c-.25-.597656-.558594-1.179688-.917969-1.71875-.371094-.550781-.78125-1.058594-1.25-1.519531-.460938-.460938-.972657-.878907-1.523438-1.25-.539062-.359375-1.117187-.671875-1.71875-.921875-.609375-.25-1.238281-.4375-1.871093-.566406-1.289063-.261719-2.617188-.261719-3.910157 0-.636719.128906-1.269531.316406-1.867187.566406-.609375.25-1.191406.5625-1.730469.921875-.550781.371093-1.0625.789062-1.519531 1.25-.460938.460937-.882813.96875-1.242188 1.519531-.359375.539062-.667968 1.121094-.917968 1.71875-.25.613281-.441407 1.242188-.570313 1.871094-.128906.652344-.199219 1.3125-.199219 1.960937 0 .648438.070313 1.308594.199219 1.949219s.320313 1.269531.570313 1.871094c.25.609375.558593 1.1875.917968 1.730468.359375.550782.78125 1.058594 1.242188 1.519532.457031.460937.96875.878906 1.519531 1.238281.539063.359375 1.121094.671875 1.730469.921875.597656.25 1.230468.4375 1.867187.570312.640625.128907 1.300781.199219 1.953125.199219.660156 0 1.308594-.070312 1.957032-.199219.632812-.132812 1.261718-.320312 1.871093-.570312.601563-.25 1.179688-.5625 1.71875-.921875.550781-.359375 1.0625-.777344 1.523438-1.238281.46875-.460938.878906-.96875 1.25-1.519532.359375-.542968.667969-1.121093.917969-1.730468.25-.601563.441406-1.230469.570312-1.871094s.191406-1.300781.191406-1.949219c0-.648437-.0625-1.308593-.191406-1.960937-.128906-.628906-.320312-1.257813-.570312-1.871094zm0 0"/></svg>