<svg xmlns="http://www.w3.org/2000/svg" data-name="Layer 1" viewBox="0 0 32 32"><path d="M17.25781,6.084l-1.02344.30176a.83206.83206,0,0,1-.46875,0L14.74219,6.084a2.4943,2.4943,0,0,0-3.06836,3.19141l.70215,2.0752a.83964.83964,0,0,1-.00781.55273,5.40035,5.40035,0,0,0,.34863,4.19824l.22168.41992a.93583.93583,0,0,0,1.67871-.04687l1.10742-2.417a.30361.30361,0,0,1,.55078,0l1.10742,2.417v.001a.93072.93072,0,0,0,.8252.54492l.02637.001a.93157.93157,0,0,0,.82715-.5l.208-.39355a5.46266,5.46266,0,0,0,.35254-4.251.83274.83274,0,0,1,.002-.52734l.70215-2.07422A2.4943,2.4943,0,0,0,17.25781,6.084Zm2.12109,2.87109-.70215,2.07324a1.84374,1.84374,0,0,0-.00391,1.16309,4.45951,4.45951,0,0,1-.28809,3.46973l-.13086.31543-1.07031-2.335a1.30181,1.30181,0,0,0-2.36719,0L13.7627,15.94043l-.16113-.30566a4.40856,4.40856,0,0,1-.27637-3.43945,1.82579,1.82579,0,0,0-.002-1.166l-.70215-2.07422A1.49447,1.49447,0,0,1,14.459,7.043l1.02344.30176a1.83027,1.83027,0,0,0,1.03516,0L17.541,7.043a1.49447,1.49447,0,0,1,1.83789,1.91211ZM16,0A11.52167,11.52167,0,0,0,6.70117,18.29492L15.582,31.77539a.5012.5012,0,0,0,.83594,0l8.874-13.47168A11.52121,11.52121,0,0,0,16,0Zm8.47656,17.72559-.01367.01855L16,30.59082,7.52344,17.72559a10.5,10.5,0,1,1,16.95313,0ZM16,3a8.5,8.5,0,1,0,8.5,8.5A8.51013,8.51013,0,0,0,16,3Zm0,16a7.5,7.5,0,1,1,7.5-7.5A7.5082,7.5082,0,0,1,16,19Z"/></svg>